<svg xmlns="http://www.w3.org/2000/svg"  viewBox="0 0 64 64" width="64px" height="64px" baseProfile="basic"><path fill="#37d0ee" d="M44,10H20c-5.523,0-10,4.477-10,10v24c0,5.523,4.477,10,10,10h24c5.523,0,10-4.477,10-10V20	C54,14.477,49.523,10,44,10z"/><ellipse cx="32" cy="61" opacity=".3" rx="20.125" ry="3"/><path fill="#fff" d="M31,15c2.761,0,5-2.238,5-5H20c-5.523,0-10,4.477-10,10v22c2.761,0,5-2.238,5-5V20 c0-2.757,2.243-5,5-5H31z" opacity=".3"/><path d="M54,44V22c-2.761,0-5,2.238-5,5v17c0,2.757-2.243,5-5,5H33c-2.761,0-5,2.238-5,5h16 C49.523,54,54,49.523,54,44z" opacity=".15"/><path fill="#fff" d="M14,21.5c-0.828,0-1.5-0.672-1.5-1.5c0-4.136,3.364-7.5,7.5-7.5c0.828,0,1.5,0.672,1.5,1.5	s-0.672,1.5-1.5,1.5c-2.481,0-4.5,2.019-4.5,4.5C15.5,20.828,14.828,21.5,14,21.5z"/><path fill="#9c34c2" d="M47.537,45.516c-0.076,0.428-0.634,0.545-0.891,0.194c-0.981-1.334-3.252-3.278-7.292-0.945	c-5.706,3.294-12.941,0.824-12.941,0.824s-5.642-1.834-10.326-7.308c-0.357-0.418,0.104-1.033,0.593-0.782	c3.271,1.683,9.771,4.009,16.733,0.795c0,0-8.593-7.137-14.074-14.28c-0.352-0.458,0.232-1.049,0.698-0.707l10.817,7.928	c0,0-3.921-4.406-7.794-9.529c-0.359-0.475,0.256-1.078,0.712-0.695c4.44,3.725,13.148,11.482,14.347,11.813	c0,0,2.431-6.31-2.164-14.273c-0.262-0.455,0.244-0.956,0.69-0.679c3.517,2.183,11.033,8.363,8.297,20.129	C44.941,38,48.336,40.996,47.537,45.516z"/></svg>